<svg width="293" height="293" viewBox="0 0 293 293" fill="none" xmlns="http://www.w3.org/2000/svg">
<path d="M146.5 224.097C132.298 224.097 119.298 220.598 107.499 213.598C95.7002 206.598 86.305 197.193 79.3132 185.381C72.3214 173.569 68.8255 160.554 68.8255 146.336C68.8255 131.899 72.3214 118.884 79.3132 107.291C86.305 95.4793 95.7002 86.1829 107.499 79.402C119.298 72.4024 132.298 68.9026 146.5 68.9026C160.702 68.9026 173.593 72.4024 185.173 79.402C196.972 86.1829 206.367 95.4793 213.359 107.291C220.569 118.884 224.175 131.899 224.175 146.336C224.175 160.773 220.569 173.897 213.359 185.709C206.367 197.302 196.972 206.598 185.173 213.598C173.593 220.598 160.702 224.097 146.5 224.097ZM46.2114 251.658C42.934 251.658 41.2953 250.018 41.2953 246.737L41.623 245.753C41.623 245.315 41.7323 244.987 41.9508 244.768L61.943 200.802C63.0354 199.052 64.4556 198.177 66.2036 198.177C67.5145 198.177 68.607 198.614 69.481 199.489L93.406 223.441C94.28 224.097 94.717 225.191 94.717 226.722C94.717 228.691 93.7338 230.113 91.7673 230.988L48.1779 251.002C47.3039 251.44 46.6484 251.658 46.2114 251.658ZM49.8166 167.991L48.1779 167.663L2.94967 150.929C0.983222 150.273 0 148.742 0 146.336C0 144.149 0.983222 142.727 2.94967 142.071L49.1611 125.009H49.8166C52.8755 125.009 54.4049 126.649 54.4049 129.931V163.069C54.4049 166.35 52.8755 167.991 49.8166 167.991ZM146.5 293C144.315 293 142.895 292.016 142.239 290.047L125.197 244.768C125.197 244.331 125.088 243.784 124.869 243.128C124.869 239.847 126.399 238.206 129.457 238.206H163.215C164.307 238.206 165.29 238.753 166.164 239.847C167.257 240.722 167.803 241.815 167.803 243.128C167.803 244.003 167.694 244.549 167.475 244.768L150.761 290.047C150.105 292.016 148.685 293 146.5 293ZM246.461 251.658C246.242 251.658 245.696 251.44 244.822 251.002L200.905 230.988C198.938 229.894 197.955 228.472 197.955 226.722C197.955 225.191 198.502 224.097 199.594 223.441L222.864 199.489C224.174 198.614 225.376 198.177 226.469 198.177C228.217 198.177 229.637 199.052 230.729 200.802L250.721 244.768L251.049 245.753C251.049 246.19 251.158 246.518 251.377 246.737C251.377 250.018 249.738 251.658 246.461 251.658ZM66.5313 94.8231C64.5649 94.8231 63.0354 93.8387 61.943 91.8701L41.9508 48.2318C41.5138 47.3568 41.2953 46.7006 41.2953 46.2631C41.2953 44.5132 41.8415 43.3102 42.934 42.654C44.0265 41.779 45.1189 41.3415 46.2114 41.3415C46.6484 41.3415 46.9761 41.4509 47.1946 41.6696C47.6316 41.6696 47.9594 41.6696 48.1779 41.6696L91.7673 62.0123C93.7338 62.8873 94.717 64.3091 94.717 66.2777C94.717 67.8089 94.28 68.9026 93.406 69.5588L69.481 93.1825C68.8255 94.2762 67.8423 94.8231 66.5313 94.8231ZM146.5 204.739C157.206 204.739 166.929 202.114 175.669 196.864C184.409 191.615 191.4 184.615 196.644 175.866C202.107 166.897 204.838 157.054 204.838 146.336C204.838 135.618 202.107 125.884 196.644 117.134C191.4 108.385 184.409 101.385 175.669 96.1355C166.929 90.8858 157.206 88.2609 146.5 88.2609C135.794 88.2609 125.962 90.8858 117.003 96.1355C108.264 101.385 101.272 108.385 96.028 117.134C90.7841 125.884 88.1622 135.618 88.1622 146.336C88.1622 157.054 90.7841 166.897 96.028 175.866C101.272 184.615 108.264 191.615 117.003 196.864C125.962 202.114 135.794 204.739 146.5 204.739ZM129.457 54.7939C128.147 54.7939 127.054 54.2471 126.18 53.1534C125.306 52.0597 124.869 50.966 124.869 49.8723C124.869 48.9974 124.978 48.4505 125.197 48.2318L142.239 2.95295C142.895 0.984316 144.315 0 146.5 0C148.685 0 150.105 0.984316 150.761 2.95295L167.475 48.2318L167.803 49.8723C167.803 50.966 167.366 52.0597 166.492 53.1534C165.618 54.2471 164.526 54.7939 163.215 54.7939H129.457ZM242.856 167.991C239.797 167.991 238.267 166.35 238.267 163.069V129.931C238.267 126.649 239.688 125.009 242.528 125.009C243.402 125.009 244.057 125.118 244.494 125.337L289.723 142.071C291.908 142.945 293 144.367 293 146.336C293 148.523 291.908 150.054 289.723 150.929L244.494 167.663L242.856 167.991ZM227.452 94.8231C225.922 94.8231 224.393 94.2762 222.864 93.1825L199.594 69.5588C198.502 68.9026 197.955 67.8089 197.955 66.2777C197.955 64.3091 198.938 62.8873 200.905 62.0123L244.822 41.6696C245.041 41.6696 245.259 41.6696 245.478 41.6696C245.915 41.4509 246.242 41.3415 246.461 41.3415C249.738 41.3415 251.377 42.9821 251.377 46.2631C251.377 46.7006 251.268 47.0287 251.049 47.2475L250.721 48.2318L230.729 91.8701C229.637 93.62 228.544 94.6043 227.452 94.8231Z" fill="black"/>
</svg>
